# xmcd
#
# Track frame offsets:
#	150
#	18890
#	34197
#	52267
#	69147
#	84972
#	97720
#	115195
#	129897
#	143397
#	159972
#	176097
#	191547
#	206247
#	220497
#
# Disc length: 3149 seconds
#
# Revision: 0
# Processed by: cddbd v1.4PL0 Copyright (c) Steve Scherf et al.
# Submitted via: dBpowerAMP V4.0
#
DISCID=c00c4b0f
DTITLE=Isto Hiltunen - Parhaat
DYEAR=1900
DGENRE=Pop
TTITLE0=Saavatko he joskus toisensa
TTITLE1=Tammen oksat
TTITLE2=Vie terveiset naiselleni
TTITLE3=Rinta rottingilla
TTITLE4=Aamu ja ilta
TTITLE5=Sade
TTITLE6=Maailman kaunein
TTITLE7=Meill‰ on toisemme
TTITLE8=13. Ja perjantai
TTITLE9=Onnen oikotie
TTITLE10=T‰‰lt‰ ikuisuuteen
TTITLE11=Nadja ja Nikolai
TTITLE12=Jos mua rakastat
TTITLE13=Katse
TTITLE14=Rakkaus l‰htee, ik‰v‰ j‰‰
EXTD=
EXTT0=
EXTT1=
EXTT2=
EXTT3=
EXTT4=
EXTT5=
EXTT6=
EXTT7=
EXTT8=
EXTT9=
EXTT10=
EXTT11=
EXTT12=
EXTT13=
EXTT14=
PLAYORDER=
